<svg width="1141" height="1024" viewBox="0 0 1141 1024" fill="none" xmlns="http://www.w3.org/2000/svg">
<g opacity="0.5">
<path d="M-187.357 349.755C-195.634 329.371 352.843 368.386 187.887 553.552C-8.12954 711.396 179.858 794.258 179.596 886.644C190.176 1259.56 -156.67 927.683 -205.396 807.687C-254.121 687.692 -305.817 397.857 -187.357 349.755Z" fill="#D9D9D9"/>
<path d="M-164.852 213.961C-173.607 186.92 597.722 266.524 337.038 499.615C36.3336 695.417 290.571 813.413 276.733 934C237.354 1421.36 -205.633 969.992 -257.168 810.802C-308.703 651.613 -339.685 270.561 -164.852 213.961Z" fill="#D9D9D9" fill-opacity="0.31"/>
<path d="M-133.138 203.878C-142.735 174.234 720.548 255.755 426.784 513.862C88.4834 731.307 372.323 858.993 355.895 991.589C308.037 1527.36 -184.636 1034.85 -241.13 860.343C-297.623 685.838 -329.389 267.411 -133.138 203.878Z" fill="#D9D9D9" fill-opacity="0.31"/>
<path d="M-92.3923 190.841C-102.7 159.003 874.692 230.321 536.551 514.868C148.694 756.35 468.095 888.788 446.892 1032.36C382.223 1612.11 -166.917 1089.58 -227.595 902.151C-288.273 714.72 -316.176 263.288 -92.3923 190.841Z" fill="#D9D9D9" fill-opacity="0.31"/>
</g>
</svg>
