<svg width="984" height="1024" viewBox="0 0 984 1024" fill="none" xmlns="http://www.w3.org/2000/svg">
<g opacity="0.5">
<path d="M1238.29 556.983C1250.67 575.171 706.255 652.357 828.587 436.646C987.032 241.114 785.824 199.632 766.653 109.257C677.896 -253.1 1086.77 -1.57117 1159.64 105.496C1232.51 212.563 1343.99 485.048 1238.29 556.983Z" fill="#D9D9D9"/>
<path d="M1244.85 694.473C1259.09 719.069 488.268 803.432 694.112 520.739C946.923 266.085 673.558 204.185 661.731 83.3844C597.751 -401.361 1125.74 -53.2297 1209.6 91.5642C1293.46 236.358 1403.87 602.377 1244.85 694.473Z" fill="#D9D9D9" fill-opacity="0.31"/>
<path d="M1215.96 711C1231.58 737.963 370.453 839.788 603.377 525.681C888.392 241.963 584.05 176.815 572.229 43.7285C506.361 -490.128 1091.58 -112.222 1183.5 46.5032C1275.43 205.228 1394.47 607.622 1215.96 711Z" fill="#D9D9D9" fill-opacity="0.31"/>
<path d="M1178.87 732.312C1195.64 761.272 225.103 897.065 495.852 547.778C824.261 230.14 484.154 167.824 474.694 23.0052C416.013 -557.382 1062.75 -162.006 1161.48 8.47565C1260.21 178.958 1382.42 614.431 1178.87 732.312Z" fill="#D9D9D9" fill-opacity="0.31"/>
</g>
</svg>
